<mxfile host="app.diagrams.net" modified="2023-04-19T08:42:45.900Z" agent="Mozilla/5.0 (Windows NT 10.0; Win64; x64) AppleWebKit/537.36 (KHTML, like Gecko) Chrome/112.0.0.0 Safari/537.36" etag="igC1pLgzY1GjDOwGzrHs" version="21.1.8" type="github">
  <diagram name="第 1 页" id="xOi_Bum9Im6iIcfUfl8x">
    <mxGraphModel dx="1434" dy="700" grid="1" gridSize="10" guides="1" tooltips="1" connect="1" arrows="1" fold="1" page="1" pageScale="1" pageWidth="827" pageHeight="1169" math="0" shadow="0">
      <root>
        <mxCell id="0" />
        <mxCell id="1" parent="0" />
        <mxCell id="WnGc8nTBg2hDpWy_Issx-3" style="edgeStyle=orthogonalEdgeStyle;rounded=0;orthogonalLoop=1;jettySize=auto;html=1;entryX=0.5;entryY=0;entryDx=0;entryDy=0;entryPerimeter=0;" edge="1" parent="1" source="WnGc8nTBg2hDpWy_Issx-1" target="WnGc8nTBg2hDpWy_Issx-2">
          <mxGeometry relative="1" as="geometry" />
        </mxCell>
        <mxCell id="WnGc8nTBg2hDpWy_Issx-1" value="&lt;font style=&quot;font-size: 17px;&quot;&gt;取消交接单&lt;/font&gt;" style="strokeWidth=2;html=1;shape=mxgraph.flowchart.start_1;whiteSpace=wrap;" vertex="1" parent="1">
          <mxGeometry x="380" y="130" width="100" height="60" as="geometry" />
        </mxCell>
        <mxCell id="WnGc8nTBg2hDpWy_Issx-5" value="&lt;b&gt;&lt;font style=&quot;font-size: 14px;&quot;&gt;草稿&lt;/font&gt;&lt;/b&gt;" style="edgeStyle=orthogonalEdgeStyle;rounded=0;orthogonalLoop=1;jettySize=auto;html=1;" edge="1" parent="1" source="WnGc8nTBg2hDpWy_Issx-2" target="WnGc8nTBg2hDpWy_Issx-4">
          <mxGeometry x="-0.6387" relative="1" as="geometry">
            <mxPoint as="offset" />
          </mxGeometry>
        </mxCell>
        <mxCell id="WnGc8nTBg2hDpWy_Issx-9" value="&lt;font style=&quot;font-size: 14px;&quot;&gt;&lt;b&gt;已提交&lt;/b&gt;&lt;/font&gt;" style="edgeStyle=orthogonalEdgeStyle;rounded=0;orthogonalLoop=1;jettySize=auto;html=1;entryX=0.5;entryY=0;entryDx=0;entryDy=0;entryPerimeter=0;" edge="1" parent="1" source="WnGc8nTBg2hDpWy_Issx-2" target="WnGc8nTBg2hDpWy_Issx-10">
          <mxGeometry x="-0.4159" relative="1" as="geometry">
            <mxPoint x="600" y="370" as="targetPoint" />
            <mxPoint as="offset" />
          </mxGeometry>
        </mxCell>
        <mxCell id="WnGc8nTBg2hDpWy_Issx-2" value="&lt;span style=&quot;font-size: 17px;&quot;&gt;交接单是&lt;br&gt;草稿或已提交&lt;br&gt;&lt;/span&gt;" style="strokeWidth=2;html=1;shape=mxgraph.flowchart.decision;whiteSpace=wrap;" vertex="1" parent="1">
          <mxGeometry x="376" y="220" width="108" height="80" as="geometry" />
        </mxCell>
        <mxCell id="WnGc8nTBg2hDpWy_Issx-21" style="edgeStyle=orthogonalEdgeStyle;rounded=0;orthogonalLoop=1;jettySize=auto;html=1;exitX=0.5;exitY=1;exitDx=0;exitDy=0;" edge="1" parent="1" source="WnGc8nTBg2hDpWy_Issx-4" target="WnGc8nTBg2hDpWy_Issx-11">
          <mxGeometry relative="1" as="geometry">
            <Array as="points">
              <mxPoint x="240" y="710" />
              <mxPoint x="434" y="710" />
            </Array>
          </mxGeometry>
        </mxCell>
        <mxCell id="WnGc8nTBg2hDpWy_Issx-4" value="&lt;font style=&quot;font-size: 17px;&quot;&gt;更新订单记录&lt;br&gt;移除交接单相关数据&lt;br&gt;&lt;/font&gt;" style="rounded=1;whiteSpace=wrap;html=1;strokeWidth=2;" vertex="1" parent="1">
          <mxGeometry x="180" y="595" width="120" height="70" as="geometry" />
        </mxCell>
        <mxCell id="WnGc8nTBg2hDpWy_Issx-6" value="&lt;font style=&quot;font-size: 17px;&quot;&gt;交接单取消成功后是否删除该交接单记录？&lt;/font&gt;" style="shape=tape;whiteSpace=wrap;html=1;strokeWidth=2;size=0.19" vertex="1" parent="1">
          <mxGeometry x="20" y="450" width="150" height="100" as="geometry" />
        </mxCell>
        <mxCell id="WnGc8nTBg2hDpWy_Issx-15" value="&lt;b&gt;&lt;font style=&quot;font-size: 14px;&quot;&gt;不存在&lt;/font&gt;&lt;/b&gt;" style="edgeStyle=orthogonalEdgeStyle;rounded=0;orthogonalLoop=1;jettySize=auto;html=1;" edge="1" parent="1" source="WnGc8nTBg2hDpWy_Issx-10" target="WnGc8nTBg2hDpWy_Issx-14">
          <mxGeometry relative="1" as="geometry" />
        </mxCell>
        <mxCell id="WnGc8nTBg2hDpWy_Issx-22" value="&lt;b&gt;&lt;font style=&quot;font-size: 14px;&quot;&gt;存在已发货&lt;/font&gt;&lt;/b&gt;" style="edgeStyle=orthogonalEdgeStyle;rounded=0;orthogonalLoop=1;jettySize=auto;html=1;entryX=1;entryY=0.5;entryDx=0;entryDy=0;entryPerimeter=0;exitX=1;exitY=0.5;exitDx=0;exitDy=0;exitPerimeter=0;" edge="1" parent="1" source="WnGc8nTBg2hDpWy_Issx-10" target="WnGc8nTBg2hDpWy_Issx-11">
          <mxGeometry x="-0.1545" relative="1" as="geometry">
            <Array as="points">
              <mxPoint x="730" y="380" />
              <mxPoint x="730" y="790" />
            </Array>
            <mxPoint as="offset" />
          </mxGeometry>
        </mxCell>
        <mxCell id="WnGc8nTBg2hDpWy_Issx-10" value="&lt;span style=&quot;font-size: 17px;&quot;&gt;交接单下订单&lt;br&gt;是否存在&lt;br&gt;已发货&lt;br&gt;&lt;/span&gt;" style="strokeWidth=2;html=1;shape=mxgraph.flowchart.decision;whiteSpace=wrap;" vertex="1" parent="1">
          <mxGeometry x="540" y="340" width="108" height="80" as="geometry" />
        </mxCell>
        <mxCell id="WnGc8nTBg2hDpWy_Issx-11" value="&lt;font style=&quot;font-size: 17px;&quot;&gt;结束&lt;/font&gt;" style="strokeWidth=2;html=1;shape=mxgraph.flowchart.terminator;whiteSpace=wrap;" vertex="1" parent="1">
          <mxGeometry x="384" y="760" width="100" height="60" as="geometry" />
        </mxCell>
        <mxCell id="WnGc8nTBg2hDpWy_Issx-18" style="edgeStyle=orthogonalEdgeStyle;rounded=0;orthogonalLoop=1;jettySize=auto;html=1;entryX=0.5;entryY=0;entryDx=0;entryDy=0;entryPerimeter=0;" edge="1" parent="1" source="WnGc8nTBg2hDpWy_Issx-14" target="WnGc8nTBg2hDpWy_Issx-17">
          <mxGeometry relative="1" as="geometry" />
        </mxCell>
        <mxCell id="WnGc8nTBg2hDpWy_Issx-14" value="&lt;font style=&quot;font-size: 17px;&quot;&gt;调用对应平台&lt;br style=&quot;border-color: var(--border-color);&quot;&gt;取消交接单接口&lt;/font&gt;" style="rounded=1;whiteSpace=wrap;html=1;strokeWidth=2;fillColor=#cdeb8b;strokeColor=#36393d;" vertex="1" parent="1">
          <mxGeometry x="531" y="490" width="126" height="60" as="geometry" />
        </mxCell>
        <mxCell id="WnGc8nTBg2hDpWy_Issx-19" value="&lt;b&gt;&lt;font style=&quot;font-size: 14px;&quot;&gt;成功&lt;/font&gt;&lt;/b&gt;" style="edgeStyle=orthogonalEdgeStyle;rounded=0;orthogonalLoop=1;jettySize=auto;html=1;entryX=1;entryY=0.5;entryDx=0;entryDy=0;" edge="1" parent="1" source="WnGc8nTBg2hDpWy_Issx-17" target="WnGc8nTBg2hDpWy_Issx-4">
          <mxGeometry relative="1" as="geometry" />
        </mxCell>
        <mxCell id="WnGc8nTBg2hDpWy_Issx-20" value="&lt;b&gt;&lt;font style=&quot;font-size: 14px;&quot;&gt;失败&lt;/font&gt;&lt;/b&gt;" style="edgeStyle=orthogonalEdgeStyle;rounded=0;orthogonalLoop=1;jettySize=auto;html=1;exitX=0.5;exitY=1;exitDx=0;exitDy=0;exitPerimeter=0;" edge="1" parent="1" source="WnGc8nTBg2hDpWy_Issx-17" target="WnGc8nTBg2hDpWy_Issx-11">
          <mxGeometry x="-0.76" relative="1" as="geometry">
            <Array as="points">
              <mxPoint x="594" y="710" />
              <mxPoint x="434" y="710" />
            </Array>
            <mxPoint as="offset" />
          </mxGeometry>
        </mxCell>
        <mxCell id="WnGc8nTBg2hDpWy_Issx-17" value="&lt;font style=&quot;font-size: 17px;&quot;&gt;响应结果&lt;br&gt;成功或失败&lt;/font&gt;&lt;span style=&quot;font-size: 17px;&quot;&gt;&lt;br&gt;&lt;/span&gt;" style="strokeWidth=2;html=1;shape=mxgraph.flowchart.decision;whiteSpace=wrap;" vertex="1" parent="1">
          <mxGeometry x="540" y="590" width="108" height="80" as="geometry" />
        </mxCell>
      </root>
    </mxGraphModel>
  </diagram>
</mxfile>
